<svg xmlns="http://www.w3.org/2000/svg" width="217" height="18" viewBox="0 0 217 18" fill="none">
  <g clip-path="url(#clip0_355_5776)">
    <path d="M2.79288 3.14622C4.41094 1.79396 6.47224 1.1293 8.77661 1.1293C9.97407 1.1293 11.6577 1.39083 12.699 1.69828C12.9659 1.76972 13.1208 1.81692 13.3198 1.79396C13.3424 2.34124 13.4521 3.83511 13.6296 5.28306C13.5188 5.44891 13.1864 5.47315 13.0303 5.33026C12.6978 3.71647 11.7006 1.8654 8.48707 1.8654C5.09606 1.8654 2.215 4.1668 2.215 9.07834C2.215 13.9899 5.16278 16.8143 8.79686 16.8143C11.6565 16.8143 12.9195 14.8217 13.4294 13.4222C13.5843 13.3035 13.9167 13.3507 14.0061 13.5179C13.8512 14.7515 13.2745 16.3181 12.9421 16.7697C12.6764 16.8156 12.4095 16.9113 12.1664 17.0057C11.6791 17.1958 10.0837 17.553 8.66461 17.553C6.67003 17.553 4.76363 17.1256 3.14557 15.9634C1.3738 14.6558 0 12.496 0 9.43555C0 6.80245 1.1081 4.54697 2.79288 3.14622Z" fill="white"/>
    <path d="M15.9185 9.50696C15.9185 4.76127 19.2427 1.13055 23.8086 1.13055C28.9273 1.13055 31.4985 5.09423 31.4985 9.26968C31.4985 14.0639 28.0861 17.553 23.8086 17.553C18.8889 17.553 15.9185 13.7781 15.9185 9.50824V9.50696ZM29.2835 10.0058C29.2835 6.0893 27.6655 1.86537 23.4333 1.86537C21.1277 1.86537 18.1358 3.5506 18.1358 8.74663C18.1358 12.2587 19.7313 16.8143 24.0981 16.8143C26.7576 16.8143 29.2835 14.6788 29.2835 10.0058Z" fill="white"/>
    <path d="M35.8059 4.59419C35.8059 2.93447 35.6951 2.43694 34.7646 2.29406L34.2772 2.22262C34.0997 2.10398 34.0783 1.72381 34.2999 1.62813C36.1836 1.50949 37.9792 1.43805 39.863 1.43805C41.7468 1.43805 43.2981 1.58093 44.7386 2.15118C47.7305 3.31336 49.2377 6.0179 49.2377 9.1498C49.2377 12.2817 47.8854 14.7502 45.3594 16.2211C43.9189 17.0516 42.1018 17.3604 40.3944 17.3604C38.9753 17.3604 37.5574 17.1703 36.7818 17.1703C35.8512 17.1703 35.0529 17.1945 34.0115 17.2417C33.8781 17.1703 33.834 16.7901 33.9674 16.6485L34.4774 16.5771C35.763 16.387 35.8071 16.1012 35.8071 13.611V4.59419H35.8059ZM37.623 13.0663C37.623 14.3254 37.6897 15.0845 38.0662 15.6534C38.5535 16.3895 39.3959 16.6268 40.7924 16.6268C45.0925 16.6268 47.0204 13.6136 47.0204 9.19828C47.0204 6.58815 45.8467 2.17542 40.0393 2.17542C38.7323 2.17542 38.0221 2.3655 37.8446 2.50838C37.6671 2.64999 37.623 3.2432 37.623 4.31098V13.0663Z" fill="white"/>
    <path d="M53.5426 5.07004C53.5426 2.60151 53.4985 2.24686 52.1902 2.07974L51.8351 2.03254C51.7017 1.93686 51.7458 1.50949 51.8792 1.43805C52.8324 1.48525 53.5854 1.50949 54.4946 1.50949H58.6612C60.0803 1.50949 61.3874 1.50949 61.6531 1.43805C61.7866 1.84245 61.9188 3.55065 62.0082 4.59419C61.9188 4.73707 61.5649 4.78428 61.4541 4.64139C61.1217 3.52641 60.9215 2.69591 59.7693 2.38846C59.3047 2.26982 58.5957 2.24558 57.6199 2.24558H56.0245C55.3596 2.24558 55.3596 2.29278 55.3596 3.19345V7.93914C55.3596 8.60507 55.4263 8.60507 56.0912 8.60507H57.3768C58.3086 8.60507 58.9949 8.55787 59.2606 8.46219C59.5263 8.36651 59.6824 8.2249 59.792 7.63042L59.9695 6.65831C60.0803 6.51543 60.4568 6.51543 60.545 6.68255C60.545 7.25153 60.4557 8.1777 60.4557 9.07836C60.4557 9.97903 60.545 10.835 60.545 11.3581C60.4557 11.5239 60.0803 11.5239 59.9695 11.3823L59.7693 10.4561C59.6812 10.0301 59.5263 9.67285 59.0818 9.55421C58.7721 9.45853 58.2395 9.43557 57.3756 9.43557H56.09C55.4251 9.43557 55.3584 9.4598 55.3584 10.0773V13.4222C55.3584 14.6788 55.4251 15.4863 55.7802 15.8907C56.0459 16.1739 56.5118 16.4367 58.4611 16.4367C60.1673 16.4367 60.8107 16.3411 61.298 16.0795C61.6972 15.8435 62.2953 15.013 62.872 13.7781C63.0269 13.6608 63.3367 13.7322 63.4261 13.944C63.2712 14.7745 62.7171 16.6026 62.4288 17.243C60.4342 17.1958 58.4611 17.1716 56.4891 17.1716H54.4946C53.5414 17.1716 52.7883 17.1958 51.4813 17.243C51.3478 17.1716 51.3037 16.7914 51.4372 16.6498L52.1688 16.5783C53.4317 16.4597 53.5426 16.1025 53.5426 13.6123V5.07004Z" fill="white"/>
    <path d="M79.1037 11.6655C78.9488 11.1437 78.8594 11.0723 78.1946 11.0723H74.8488C74.2948 11.0723 74.1613 11.1437 74.0064 11.6425L73.2308 14.1327C72.8983 15.2018 72.7435 15.8422 72.7435 16.1012C72.7435 16.3869 72.8543 16.5285 73.3857 16.577L74.1173 16.6485C74.2721 16.7671 74.2721 17.146 74.0732 17.2417C73.4965 17.1945 72.809 17.1945 71.7676 17.1702C71.036 17.1702 70.2389 17.2174 69.6396 17.2417C69.5073 17.146 69.4621 16.7671 69.5955 16.6485L70.3271 16.577C70.8597 16.5298 71.347 16.2683 71.6568 15.4136C72.0548 14.3228 72.6767 12.7805 73.6073 10.1231L75.8688 3.71516C76.1786 2.86042 76.312 2.41009 76.2453 2.02993C76.7767 1.86408 77.1532 1.43544 77.3975 1.12799C77.5309 1.12799 77.6858 1.17519 77.7299 1.34231C78.0182 2.38713 78.3733 3.47788 78.7057 4.52142L81.7417 14.0613C82.3839 16.1012 82.6734 16.4584 83.6254 16.577L84.2236 16.6485C84.3785 16.7671 84.3344 17.146 84.2236 17.2417C83.3157 17.1945 82.5388 17.1702 81.5427 17.1702C80.4787 17.1702 79.6363 17.2174 78.9941 17.2417C78.8165 17.146 78.7939 16.7671 78.95 16.6485L79.5922 16.577C80.0581 16.5298 80.3679 16.3869 80.3679 16.1496C80.3679 15.8894 80.2571 15.462 80.0795 14.8931L79.1049 11.6655H79.1037ZM74.7154 9.55415C74.5379 10.1014 74.5605 10.1244 75.1813 10.1244H77.9074C78.5496 10.1244 78.5949 10.0287 78.3947 9.38703L77.1973 5.52031C77.0198 4.95006 76.8208 4.30965 76.6873 4.02516H76.6432C76.5777 4.14253 76.3549 4.7115 76.1118 5.42463L74.7154 9.55288V9.55415Z" fill="white"/>
    <path d="M99.0997 13.1377C99.0997 13.8496 99.0997 16.674 99.1664 17.2915C99.1223 17.4344 98.9888 17.553 98.7446 17.553C98.4789 17.1486 97.8367 16.3181 95.9076 13.9695L90.7663 7.70441C90.1682 6.96959 88.6609 5.02411 88.195 4.50106H88.1509C88.0616 4.78683 88.0401 5.33284 88.0401 6.04342V11.2178C88.0401 12.3327 88.0616 15.4174 88.4381 16.1293C88.5715 16.3908 89.0148 16.5337 89.5688 16.5809L90.2563 16.6523C90.3898 16.8411 90.3671 17.1269 90.2122 17.2456C89.215 17.1984 88.4393 17.1741 87.6195 17.1741C86.6878 17.1741 86.0896 17.1984 85.314 17.2456C85.1591 17.1269 85.1364 16.7939 85.2699 16.6523L85.8692 16.5809C86.3792 16.5095 86.7331 16.3666 86.8439 16.1051C87.1537 15.2516 87.1322 12.3557 87.1322 11.2178V4.35818C87.1322 3.69353 87.1096 3.19472 86.6449 2.64999C86.3351 2.3183 85.8025 2.15246 85.2711 2.08101L84.8946 2.03381C84.7623 1.89093 84.7623 1.535 84.9387 1.43933C85.8704 1.51077 87.044 1.51077 87.4432 1.51077C87.7983 1.51077 88.1748 1.48653 88.4631 1.43933C88.9064 2.64999 91.5217 5.78317 92.2533 6.66087L94.4028 9.24676C95.9315 11.0749 97.0181 12.4029 98.0595 13.5421H98.1036C98.1929 13.4235 98.1929 13.0433 98.1929 12.5445V7.46712C98.1929 6.35086 98.1703 3.26616 97.7497 2.55431C97.6174 2.34126 97.2624 2.19966 96.3759 2.07974L95.9994 2.03254C95.8445 1.88966 95.8659 1.50949 96.0435 1.43805C97.0634 1.48525 97.8164 1.50949 98.6588 1.50949C99.612 1.50949 100.188 1.48525 100.942 1.43805C101.119 1.55669 101.119 1.88966 100.986 2.03254L100.676 2.07974C99.9671 2.19838 99.5238 2.38846 99.4345 2.57727C99.058 3.43201 99.102 6.37383 99.102 7.46585V13.1364L99.0997 13.1377Z" fill="white"/>
    <path d="M104.979 4.59419C104.979 2.93447 104.869 2.43694 103.938 2.29406L103.451 2.22262C103.273 2.10398 103.252 1.72381 103.473 1.62813C105.357 1.50949 107.153 1.43805 109.037 1.43805C110.92 1.43805 112.472 1.58093 113.912 2.15118C116.904 3.31336 118.411 6.0179 118.411 9.1498C118.411 12.2817 117.058 14.7502 114.532 16.2211C113.091 17.0516 111.274 17.3604 109.567 17.3604C108.149 17.3604 106.73 17.1703 105.954 17.1703C105.024 17.1703 104.225 17.1945 103.184 17.2417C103.05 17.1703 103.006 16.7901 103.14 16.6485L103.65 16.5771C104.935 16.387 104.979 16.1012 104.979 13.611V4.59419ZM106.797 13.0663C106.797 14.3254 106.863 15.0845 107.24 15.6534C107.727 16.3895 108.569 16.6268 109.965 16.6268C114.265 16.6268 116.194 13.6136 116.194 9.19828C116.194 6.58815 115.018 2.17542 109.212 2.17542C107.905 2.17542 107.194 2.3655 107.017 2.50838C106.839 2.64999 106.795 3.2432 106.795 4.31098V13.0663H106.797Z" fill="white"/>
    <path d="M133.024 13.6121C133.024 16.1023 133.068 16.4595 134.355 16.5782L135.064 16.6496C135.196 16.7453 135.153 17.1714 135.02 17.2428C133.756 17.1956 133.003 17.1714 132.116 17.1714C131.23 17.1714 130.454 17.1956 129.035 17.2428C128.902 17.1714 128.857 16.7683 129.035 16.6496L129.833 16.5782C131.096 16.4595 131.207 16.1023 131.207 13.6121V3.00448C131.207 2.26966 131.207 2.2467 130.542 2.2467H129.323C128.37 2.2467 127.151 2.2939 126.597 2.83991C126.065 3.36168 125.843 3.88473 125.6 4.47666C125.422 4.61955 125.113 4.5009 125.024 4.3121C125.378 3.24431 125.712 1.72493 125.867 0.777063C125.932 0.729861 126.221 0.705622 126.287 0.777063C126.421 1.53484 127.152 1.51188 128.171 1.51188H137.148C138.344 1.51188 138.544 1.46468 138.876 0.848503C138.986 0.801301 139.231 0.824264 139.275 0.919944C139.031 1.89205 138.876 3.81456 138.941 4.52514C138.852 4.71522 138.476 4.71523 138.366 4.57234C138.299 3.98041 138.144 3.10143 137.812 2.84119C137.3 2.43806 136.459 2.24797 135.24 2.24797H133.668C133.003 2.24797 133.024 2.27221 133.024 3.05296V13.6134V13.6121Z" fill="white"/>
    <path d="M145.708 9.50701C144.644 9.50701 144.599 9.55421 144.599 10.2661V13.6123C144.599 16.1025 144.71 16.4355 145.952 16.5783L146.595 16.6498C146.727 16.7455 146.684 17.1716 146.55 17.243C145.353 17.1958 144.599 17.1716 143.736 17.1716C142.783 17.1716 142.029 17.2188 141.165 17.243C141.031 17.1716 140.989 16.7914 141.121 16.6498L141.498 16.5783C142.739 16.3411 142.784 16.1025 142.784 13.6123V5.07004C142.784 2.57855 142.629 2.17542 141.477 2.07974L140.902 2.03254C140.768 1.93686 140.812 1.50949 140.946 1.43805C142.031 1.46229 142.784 1.50949 143.738 1.50949C144.602 1.50949 145.355 1.48525 146.309 1.43805C146.442 1.50949 146.486 1.93686 146.353 2.03254L145.932 2.07974C144.645 2.22262 144.601 2.57727 144.601 5.07004V7.79881C144.601 8.53618 144.645 8.55914 145.71 8.55914H152.049C153.112 8.55914 153.157 8.53491 153.157 7.79881V5.07004C153.157 2.57855 153.113 2.22262 151.805 2.07974L151.384 2.03254C151.251 1.93686 151.295 1.50949 151.428 1.43805C152.447 1.48525 153.201 1.50949 154.111 1.50949C155.02 1.50949 155.729 1.48525 156.726 1.43805C156.859 1.50949 156.903 1.93686 156.77 2.03254L156.305 2.07974C155.02 2.22262 154.976 2.57727 154.976 5.07004V13.6136C154.976 16.1038 155.02 16.4138 156.305 16.5796L156.837 16.6511C156.97 16.7467 156.926 17.1728 156.793 17.2443C155.73 17.1971 154.976 17.1728 154.112 17.1728C153.203 17.1728 152.404 17.1971 151.43 17.2443C151.296 17.1728 151.252 16.7927 151.386 16.6511L151.806 16.5796C153.159 16.3423 153.159 16.1038 153.159 13.6136V10.2673C153.159 9.55548 153.114 9.50828 152.05 9.50828H145.712L145.708 9.50701Z" fill="white"/>
    <path d="M161.096 5.07004C161.096 2.60151 161.052 2.24686 159.744 2.07974L159.389 2.03254C159.256 1.93686 159.302 1.50949 159.433 1.43805C160.386 1.48525 161.14 1.50949 162.049 1.50949H166.216C167.634 1.50949 168.942 1.50949 169.208 1.43805C169.34 1.84245 169.474 3.55065 169.562 4.59419C169.472 4.73707 169.118 4.78428 169.008 4.64139C168.674 3.52641 168.476 2.69591 167.323 2.38846C166.858 2.26982 166.148 2.24558 165.173 2.24558H163.579C162.913 2.24558 162.913 2.29278 162.913 3.19345V7.93914C162.913 8.60507 162.98 8.60507 163.645 8.60507H164.931C165.861 8.60507 166.548 8.55787 166.815 8.46219C167.082 8.36651 167.236 8.2249 167.347 7.63042L167.524 6.65831C167.635 6.51543 168.012 6.51543 168.1 6.68255C168.1 7.25153 168.01 8.1777 168.01 9.07836C168.01 9.97903 168.1 10.835 168.1 11.3581C168.01 11.5239 167.635 11.5239 167.524 11.3823L167.324 10.4561C167.235 10.0301 167.081 9.67285 166.637 9.55421C166.327 9.45853 165.794 9.43557 164.93 9.43557H163.643C162.979 9.43557 162.912 9.4598 162.912 10.0773V13.4222C162.912 14.6788 162.979 15.4863 163.334 15.8907C163.599 16.1739 164.065 16.4367 166.016 16.4367C167.723 16.4367 168.365 16.3411 168.853 16.0795C169.252 15.8435 169.85 15.013 170.427 13.7781C170.582 13.6608 170.891 13.7322 170.981 13.944C170.826 14.7745 170.272 16.6026 169.983 17.243C167.989 17.1958 166.017 17.1716 164.045 17.1716H162.05C161.097 17.1716 160.343 17.1958 159.036 17.243C158.902 17.1716 158.858 16.7914 158.992 16.6498L159.723 16.5783C160.986 16.4597 161.097 16.1025 161.097 13.6123V5.07004H161.096Z" fill="white"/>
    <path d="M172.67 9.50696C172.67 4.76127 175.994 1.13055 180.559 1.13055C185.679 1.13055 188.25 5.09423 188.25 9.26968C188.25 14.0639 184.836 17.553 180.559 17.553C175.639 17.553 172.67 13.7781 172.67 9.50824V9.50696ZM186.034 10.0058C186.034 6.0893 184.416 1.86537 180.182 1.86537C177.877 1.86537 174.885 3.5506 174.885 8.74663C174.885 12.2587 176.482 16.8143 180.847 16.8143C183.507 16.8143 186.034 14.6788 186.034 10.0058Z" fill="white"/>
    <path d="M192.558 5.09296C192.558 2.83876 192.491 2.43563 191.582 2.31699L190.873 2.22131C190.719 2.10267 190.719 1.7225 190.895 1.62682C192.137 1.50818 193.666 1.43674 195.838 1.43674C197.212 1.43674 198.52 1.55538 199.54 2.14987C200.604 2.74308 201.379 3.81086 201.379 5.47185C201.379 7.72478 199.717 8.95969 198.608 9.43426C198.498 9.57714 198.608 9.81442 198.719 10.0045C200.493 13.065 201.667 14.9632 203.174 16.3155C203.552 16.6727 204.106 16.9317 204.704 16.9802C204.815 17.0274 204.837 17.2175 204.726 17.3131C204.526 17.3846 204.172 17.4318 203.751 17.4318C201.867 17.4318 200.736 16.8373 199.163 14.4415C198.587 13.5638 197.679 11.9257 196.991 10.858C196.657 10.3362 196.304 10.1002 195.417 10.1002C194.42 10.1002 194.375 10.1244 194.375 10.6207V13.6123C194.375 16.1025 194.419 16.3882 195.705 16.5783L196.17 16.6498C196.304 16.7684 196.26 17.1715 196.126 17.243C195.129 17.1958 194.375 17.1715 193.489 17.1715C192.558 17.1715 191.76 17.1958 190.719 17.243C190.586 17.1715 190.542 16.8156 190.675 16.6498L191.229 16.5783C192.515 16.4125 192.559 16.1025 192.559 13.6123V5.09296H192.558ZM194.375 8.48767C194.375 8.91376 194.375 9.17401 194.441 9.26969C194.508 9.34113 194.84 9.38833 195.971 9.38833C196.769 9.38833 197.612 9.29265 198.254 8.77215C198.852 8.27462 199.362 7.44412 199.362 5.83033C199.362 3.95629 198.277 2.17666 195.816 2.17666C194.442 2.17666 194.376 2.27234 194.376 2.93571V8.48894L194.375 8.48767Z" fill="white"/>
    <path d="M210.911 13.5651C210.911 16.1038 211.045 16.4839 212.242 16.5783L213.084 16.6498C213.217 16.7914 213.173 17.1715 213.041 17.243C211.666 17.1958 210.911 17.1715 210.026 17.1715C209.094 17.1715 208.297 17.1958 207.122 17.243C206.989 17.1715 206.945 16.7914 207.078 16.6498L207.766 16.5783C209.052 16.4354 209.096 16.1025 209.096 13.5651V12.3544C209.096 11.0493 209.029 10.7406 208.387 9.41258L205.771 3.95631C205.018 2.38972 204.685 2.27107 204.02 2.15243L203.399 2.03379C203.266 1.86794 203.288 1.53498 203.443 1.4393C204.152 1.4865 204.95 1.51074 206.013 1.51074C207.076 1.51074 207.831 1.4865 208.386 1.4393C208.586 1.51074 208.586 1.89091 208.452 2.03379L208.164 2.08099C207.388 2.19963 207.233 2.31827 207.233 2.50836C207.233 2.74437 207.809 4.09664 207.921 4.3352C208.741 6.09059 209.56 7.96591 210.424 9.60266C211.112 8.34607 211.842 6.96957 212.507 5.59178C213.128 4.35816 213.947 2.74437 213.947 2.46116C213.947 2.31827 213.549 2.15243 213.017 2.08099L212.618 2.03379C212.463 1.86794 212.484 1.53498 212.662 1.4393C213.46 1.4865 214.102 1.51074 214.79 1.51074C215.477 1.51074 216.097 1.4865 216.851 1.4393C217.029 1.55794 217.051 1.89091 216.895 2.03379L216.274 2.15243C215.122 2.36675 214.457 3.8619 213.349 5.90179L211.953 8.48895C210.977 10.2916 210.91 10.5059 210.91 12.3314V13.5663L210.911 13.5651Z" fill="white"/>
  </g>
  <defs>
    <clipPath id="clip0_355_5776">
      <rect width="217" height="16.8217" fill="white" transform="translate(0 0.72998)"/>
    </clipPath>
  </defs>
</svg>